<svg width="420" height="160" viewBox="0 0 420 160" xmlns="http://www.w3.org/2000/svg">
  <!-- Icon group -->
  <g transform="translate(160,10)">
    <!-- Support curves / hands -->
    <path d="M0 70
             C10 40 40 25 60 25
             C80 25 110 40 120 70
             C100 55 80 48 60 48
             C40 48 20 55 0 70 Z"
          fill="#7A8A94"/>

    <!-- Lower circle -->
    <circle cx="60" cy="78" r="8" fill="#7A8A94"/>

    <!-- Bell body -->
    <path d="M60 12
             C48 12 38 22 38 34
             L38 52
             C38 56 36 60 33 63
             L30 66
             L90 66
             L87 63
             C84 60 82 56 82 52
             L82 34
             C82 22 72 12 60 12 Z"
          fill="#0B75BD"/>

    <!-- Bell top circle -->
    <circle cx="60" cy="8" r="5" fill="#0B75BD"/>

    <!-- Bell highlight -->
    <path d="M52 18
             C46 22 43 28 43 36
             L43 52
             C43 54 42 56 41 58"
          fill="none"
          stroke="#FFFFFF"
          stroke-width="3"
          stroke-linecap="round"/>

    <!-- Ring lines -->
    <path d="M88 20 C94 24 98 30 100 37"
          fill="none"
          stroke="#0B75BD"
          stroke-width="3"
          stroke-linecap="round"/>
    <path d="M86 14 C94 19 100 26 103 34"
          fill="none"
          stroke="#0B75BD"
          stroke-width="2"
          stroke-linecap="round"/>
  </g>

  <!-- PAYREMIND -->
  <text x="210" y="120"
        text-anchor="middle"
        font-family="system-ui, -apple-system, BlinkMacSystemFont, 'Segoe UI', sans-serif"
        font-size="28"
        font-weight="700"
        letter-spacing="4"
        fill="#0B75BD">
    PAYREMIND
  </text>

  <!-- Tagline -->
  <text x="210" y="142"
        text-anchor="middle"
        font-family="system-ui, -apple-system, BlinkMacSystemFont, 'Segoe UI', sans-serif"
        font-size="12"
        letter-spacing="2"
        fill="#7A8A94">
    NEVER MISS A PAYMENT
  </text>
</svg>
